<svg xmlns="http://www.w3.org/2000/svg" width="512" height="512" viewBox="0 0 512 512">
  <rect width="512" height="512" fill="#4f46e5" rx="128" />
  <path d="M168 56c0-13.3 10.7-24 24-24s24 10.7 24 24v4h80v-4c0-13.3 10.7-24 24-24s24 10.7 24 24v4h8c26.5 0 48 21.5 48 48v16 96 96c0 35.3-28.7 64-64 64H176c-35.3 0-64-28.7-64-64V224 128 112c0-26.5 21.5-48 48-48h8v-4zM296 112H176c-8.8 0-16 7.2-16 16v16H336V128c0-8.8-7.2-16-16-16zM160 320V224H352v96c0 17.7-14.3 32-32 32H192c-17.7 0-32-14.3-32-32zM48 224H64v96c0 53 43 96 96 96h95.3L208 469.3c-7.4 7.4-7.4 19.5 0 26.9s19.5 7.4 26.9 0l62.1-62.1c.1-.1 .2-.2 .3-.3 .1-.1 .2-.2 .3-.3l64-64c7.4-7.4 7.4-19.5 0-26.9s-19.5-7.4-26.9 0l-39 39H288c53 0 96-43 96-96V224h16c8.8 0 16-7.2 16-16s-7.2-16-16-16H384V128c0-8.8-7.2-16-16-16s-16 7.2-16 16v64H160V128c0-8.8-7.2-16-16-16s-16 7.2-16 16v64H48c-8.8 0-16 7.2-16 16s7.2 16 16 16zM152 272a24 24 0 1 0 48 0 24 24 0 1 0 -48 0zm160 0a24 24 0 1 0 48 0 24 24 0 1 0 -48 0zM224 384c-20.1 0-39-11.2-48.5-29.2c-4.8-9.2-16.2-12.7-25.4-7.9s-12.7 16.2-7.9 25.4c15.8 30 47.1 49.7 81.8 49.7s66-19.7 81.8-49.7c4.8-9.2 1.3-20.6-7.9-25.4s-20.6-1.3-25.4 7.9C263 372.8 244.1 384 224 384z" fill="white"/>
</svg> 